<?xml version="1.0" encoding="utf-8"?>
<!-- Generator: Adobe Illustrator 22.0.0, SVG Export Plug-In . SVG Version: 6.00 Build 0)  -->
<svg version="1.1" id="Layer_1" xmlns="http://www.w3.org/2000/svg" xmlns:xlink="http://www.w3.org/1999/xlink" x="0px" y="0px"
	 viewBox="0 0 1200 1200" style="enable-background:new 0 0 1200 1200;" xml:space="preserve">
<style type="text/css">
	.st0{fill:#4D4D4D;}
	.st1{opacity:8.000000e-02;}
	.st2{fill:#FFFFFF;}
	.st3{fill:none;stroke:#4D4D4D;stroke-width:1.1458;stroke-miterlimit:10;}
	.st4{fill:#8C8C8C;}
</style>
<rect y="0" width="1200" height="1200"/>
<g>
	<g>
		<path class="st0" d="M1148.9,461.8V738H51.1V461.8H1148.9 M1150,460.7H50v278.4h1100V460.7L1150,460.7z"/>
	</g>
	<g class="st1">
		<rect x="50" y="460.7" class="st2" width="87" height="87"/>
		<rect x="1063" y="652.1" class="st2" width="87" height="87"/>
	</g>
	<g>
		<line class="st3" x1="137" y1="460.7" x2="137" y2="739"/>
		<line class="st3" x1="613.7" y1="461" x2="613.7" y2="739.3"/>
		<line class="st3" x1="792.4" y1="461" x2="792.4" y2="739.3"/>
		<line class="st3" x1="817.2" y1="461" x2="817.2" y2="739.3"/>
		<line class="st3" x1="1150" y1="547.7" x2="50" y2="547.7"/>
		<line class="st3" x1="1150" y1="652.1" x2="50" y2="652.1"/>
		<line class="st3" x1="1150" y1="635" x2="50" y2="635"/>
		<line class="st3" x1="1063" y1="460.7" x2="1063" y2="739"/>
	</g>
	<g>
		<path class="st4" d="M821.1,585.9c2.5-4.8,6-8.6,10.7-11.2c4.6-2.7,10-4,16.2-4c7.2,0,13.3,2,18.1,5.9c4.8,4,7.7,9.3,8.8,16h-10.2
			c-1-4-3-7.2-6-9.4c-3-2.3-6.6-3.4-10.9-3.4c-4,0-7.4,1-10.4,2.9c-3,1.9-5.3,4.6-6.9,8.1c-1.6,3.4-2.4,7.4-2.4,11.9
			c0,4.5,0.8,8.5,2.4,11.9c1.6,3.4,3.9,6.1,6.8,8.1c3,1.9,6.4,2.9,10.4,2.9c5,0,9.2-1.4,12.6-4.1c3.4-2.8,5.2-6.6,5.4-11.5v-1.5
			h-17.4v-8.7h27.3v34.4h-7.8l-1.1-9c-1.8,2.6-4.4,4.9-7.7,6.7c-3.3,1.9-7.3,2.8-11.8,2.8c-5.8,0-11-1.3-15.5-4
			c-4.5-2.7-8-6.4-10.5-11.3c-2.5-4.9-3.8-10.4-3.8-16.7C817.4,596.4,818.6,590.8,821.1,585.9z"/>
		<path class="st4" d="M911,588.1v9.1h-4.3c-4,0-6.9,1.3-8.7,3.9c-1.8,2.6-2.7,5.9-2.7,9.9v23.1h-9.7v-46h8.6l1.1,6.9
			c1.3-2.2,3-3.8,5.1-5.1c2.1-1.2,4.9-1.8,8.4-1.8H911z"/>
		<path class="st4" d="M924.1,631.8c-3.6-1.9-6.3-4.7-8.3-8.3c-1.9-3.6-2.9-7.7-2.9-12.4c0-4.6,1-8.7,2.9-12.3
			c1.9-3.6,4.7-6.3,8.3-8.3c3.6-2,7.7-3,12.3-3c4.6,0,8.7,1,12.3,3c3.6,2,6.3,4.7,8.3,8.3c1.9,3.6,2.9,7.7,2.9,12.3
			c0,4.7-1,8.8-2.9,12.4c-1.9,3.6-4.7,6.3-8.3,8.3c-3.6,1.9-7.7,2.9-12.3,2.9C931.8,634.7,927.7,633.7,924.1,631.8z M946.2,622.2
			c2.5-2.8,3.7-6.5,3.7-11c0-4.5-1.2-8.2-3.7-11c-2.5-2.8-5.8-4.3-9.8-4.3c-4.1,0-7.3,1.4-9.8,4.3c-2.5,2.8-3.7,6.5-3.7,11
			c0,4.5,1.2,8.2,3.7,11c2.5,2.8,5.7,4.3,9.8,4.3C940.4,626.4,943.7,625,946.2,622.2z"/>
		<path class="st4" d="M1007.5,588.1v46H999l-1.1-5.8c-3.5,4.3-8.2,6.4-14.2,6.4c-5.4,0-9.8-1.7-13.1-5c-3.4-3.4-5-8.7-5-16.2v-25.3
			h9.7v24.4c0,4.5,0.9,7.9,2.7,10.2c1.8,2.3,4.5,3.5,8,3.5c3.7,0,6.6-1.4,8.7-4.1c2.1-2.7,3.1-6.5,3.1-11.2v-22.8H1007.5z"/>
		<path class="st4" d="M1052.5,590.4c3.3,1.9,5.9,4.6,7.7,8.2c1.9,3.6,2.8,7.7,2.8,12.5c0,4.7-0.9,8.8-2.8,12.4
			c-1.9,3.6-4.4,6.3-7.7,8.3c-3.3,1.9-7,2.9-11.2,2.9c-3.4,0-6.4-0.6-8.9-1.9c-2.5-1.3-4.5-3-6-5.1v24.4h-9.7v-64h8.4l1.2,6.8
			c3.7-4.9,8.7-7.4,15-7.4C1045.4,587.6,1049.2,588.5,1052.5,590.4z M1049.4,622.2c2.5-2.9,3.7-6.6,3.7-11.1c0-4.6-1.2-8.2-3.7-11.1
			c-2.5-2.8-5.7-4.2-9.8-4.2c-4,0-7.3,1.4-9.7,4.2c-2.5,2.8-3.7,6.4-3.7,10.9c0,4.6,1.2,8.4,3.7,11.2c2.5,2.9,5.7,4.3,9.7,4.3
			C1043.6,626.5,1046.9,625.1,1049.4,622.2z"/>
	</g>
	<g>
		<g>
			<path class="st2" d="M140.7,585.9c2.5-4.8,6-8.6,10.6-11.2c4.6-2.7,9.9-4,16-4c4.7,0,9,0.9,12.8,2.7c3.8,1.8,6.9,4.4,9.3,7.7
				c2.4,3.3,3.9,7.2,4.6,11.5h-10.3c-1-4-3-7.2-5.9-9.4c-2.9-2.3-6.6-3.4-10.9-3.4c-3.9,0-7.3,1-10.2,2.9c-2.9,1.9-5.2,4.6-6.7,8.1
				c-1.6,3.4-2.3,7.4-2.3,11.9c0,4.4,0.8,8.4,2.3,11.9c1.6,3.5,3.8,6.2,6.7,8.1c2.9,1.9,6.4,2.9,10.2,2.9c4.3,0,7.9-1.1,10.8-3.4
				c2.9-2.3,4.9-5.4,5.9-9.4H194c-0.7,4.4-2.2,8.3-4.5,11.6c-2.4,3.3-5.4,5.8-9.2,7.6c-3.8,1.8-8.1,2.7-12.9,2.7
				c-6.1,0-11.5-1.3-16-4c-4.6-2.6-8.1-6.4-10.6-11.2c-2.5-4.8-3.7-10.4-3.7-16.9C137,596.4,138.2,590.8,140.7,585.9z"/>
			<path class="st2" d="M210,631.8c-3.6-1.9-6.3-4.7-8.3-8.3c-1.9-3.6-2.9-7.7-2.9-12.4c0-4.6,1-8.7,2.9-12.3
				c1.9-3.6,4.7-6.3,8.3-8.3c3.6-2,7.7-3,12.3-3c4.6,0,8.7,1,12.3,3c3.6,2,6.3,4.7,8.3,8.3c1.9,3.6,2.9,7.7,2.9,12.3
				c0,4.7-1,8.8-2.9,12.4c-1.9,3.6-4.7,6.3-8.3,8.3c-3.6,1.9-7.7,2.9-12.3,2.9C217.7,634.7,213.6,633.7,210,631.8z M232.1,622.2
				c2.5-2.8,3.7-6.5,3.7-11c0-4.5-1.2-8.2-3.7-11c-2.5-2.8-5.8-4.3-9.8-4.3c-4.1,0-7.3,1.4-9.8,4.3c-2.5,2.8-3.7,6.5-3.7,11
				c0,4.5,1.2,8.2,3.7,11c2.5,2.8,5.7,4.3,9.8,4.3C226.4,626.4,229.6,625,232.1,622.2z"/>
			<path class="st2" d="M317.6,592.5c3.2,3.3,4.8,8.5,4.8,15.7v26h-9.7v-25.9c0-4-0.8-7.1-2.4-9.2c-1.6-2.1-4-3.1-7.2-3.1
				c-3.4,0-6,1.2-8,3.6c-1.9,2.4-2.9,5.6-2.9,9.8v24.9h-9.8v-25.9c0-4.1-0.8-7.1-2.5-9.2c-1.6-2.1-4.1-3.1-7.2-3.1
				c-3.3,0-5.9,1.2-7.9,3.7c-1.9,2.5-2.9,5.8-2.9,9.9v24.6h-9.7v-46h8.4l1.1,6c3.3-4.3,7.8-6.5,13.5-6.6c3.2,0,6.1,0.7,8.5,2.1
				c2.5,1.4,4.3,3.5,5.7,6.3c1.6-2.6,3.7-4.7,6.4-6.2c2.6-1.5,5.8-2.2,9.5-2.2C310.3,587.6,314.5,589.2,317.6,592.5z"/>
			<path class="st2" d="M366.6,590.4c3.3,1.9,5.9,4.6,7.7,8.2c1.9,3.6,2.8,7.7,2.8,12.5c0,4.7-0.9,8.8-2.8,12.4
				c-1.9,3.6-4.4,6.3-7.7,8.3c-3.3,1.9-7,2.9-11.2,2.9c-3.4,0-6.4-0.6-8.9-1.9c-2.5-1.3-4.5-3-6-5.1v24.4h-9.7v-64h8.4l1.2,6.8
				c3.7-4.9,8.7-7.4,15-7.4C359.6,587.6,363.3,588.5,366.6,590.4z M363.5,622.2c2.5-2.9,3.7-6.6,3.7-11.1c0-4.6-1.2-8.2-3.7-11.1
				c-2.5-2.8-5.7-4.2-9.8-4.2c-4,0-7.3,1.4-9.7,4.2c-2.5,2.8-3.7,6.4-3.7,10.9c0,4.6,1.2,8.4,3.7,11.2c2.5,2.9,5.7,4.3,9.7,4.3
				C357.8,626.5,361,625.1,363.5,622.2z"/>
			<path class="st2" d="M384.5,571.2h9.7v62.9h-9.7V571.2z"/>
			<path class="st2" d="M412.4,571.4c1.1,1.1,1.7,2.5,1.7,4.2c0,1.7-0.6,3.1-1.7,4.2c-1.1,1.1-2.5,1.7-4.2,1.7
				c-1.7,0-3.1-0.6-4.2-1.7c-1.1-1.1-1.7-2.5-1.7-4.2c0-1.7,0.6-3.1,1.7-4.2c1.1-1.1,2.5-1.7,4.2-1.7
				C409.8,569.7,411.2,570.3,412.4,571.4z M403.3,588.1h9.7v46h-9.7V588.1z"/>
			<path class="st2" d="M466.1,625.7v8.4H461c-3,0-5.2-0.6-6.5-1.9c-1.3-1.3-2-3.1-2-5.5c-3.5,5.3-8.5,7.9-15.2,7.9
				c-5.2,0-9.3-1.2-12.4-3.6c-3.1-2.4-4.7-5.7-4.7-9.9c0-4.7,1.7-8.4,5-10.9c3.4-2.5,8.2-3.8,14.7-3.8h11.6v-2.8
				c0-2.6-0.9-4.6-2.7-6.1c-1.8-1.5-4.3-2.2-7.5-2.2c-2.8,0-5.1,0.6-7,1.8c-1.8,1.2-2.9,2.9-3.3,4.9h-9.5c0.5-4.6,2.5-8.2,6.1-10.7
				c3.6-2.5,8.3-3.8,14.1-3.8c6.2,0,10.9,1.4,14.3,4.3c3.4,2.9,5,7,5,12.4v18.2c0,2.2,1,3.2,3.1,3.2H466.1z M451.6,613.7h-12
				c-3,0-5.3,0.6-6.9,1.8c-1.6,1.2-2.4,2.9-2.4,5.2c0,2,0.8,3.6,2.3,4.8c1.5,1.2,3.6,1.8,6.2,1.8c4,0,7.1-1.1,9.4-3.2
				c2.2-2.2,3.4-5,3.5-8.6V613.7z"/>
			<path class="st2" d="M508.6,592.6c3.4,3.4,5.2,8.7,5.2,16.2v25.3H504v-24.8c0-4.4-0.9-7.7-2.8-10c-1.9-2.3-4.6-3.4-8.2-3.4
				c-3.8,0-6.8,1.3-9,4c-2.2,2.7-3.3,6.3-3.3,11v23.2H471v-46h8.4l1.1,6c3.5-4.4,8.4-6.6,14.7-6.6
				C500.7,587.6,505.1,589.3,508.6,592.6z"/>
			<path class="st2" d="M556.7,630.2c-3.7,3-8.5,4.5-14.3,4.5c-4.6,0-8.6-1-12-2.9c-3.5-1.9-6.2-4.7-8-8.3
				c-1.9-3.6-2.8-7.7-2.8-12.4c0-4.7,1-8.8,2.9-12.3c1.9-3.5,4.6-6.3,8.1-8.2c3.5-1.9,7.6-2.9,12.2-2.9c5.8,0,10.5,1.5,14.1,4.5
				c3.7,3,5.9,7.1,6.8,12.4h-10c-0.7-2.6-2-4.7-4-6.3c-2-1.6-4.4-2.3-7.3-2.3c-3.9,0-7,1.4-9.4,4.2c-2.4,2.8-3.6,6.5-3.6,11
				c0,4.6,1.2,8.3,3.6,11.1c2.4,2.8,5.5,4.3,9.4,4.3c3,0,5.5-0.8,7.5-2.4c2-1.6,3.3-3.7,3.9-6.4h9.9
				C562.7,623,560.4,627.1,556.7,630.2z"/>
			<path class="st2" d="M571.3,598.8c1.9-3.6,4.5-6.3,7.9-8.3c3.4-1.9,7.3-2.9,11.6-2.9c4.4,0,8.3,0.9,11.7,2.7
				c3.4,1.8,6.1,4.3,8,7.6c1.9,3.3,3,7.2,3,11.6c0,1.2-0.1,2.4-0.3,3.7h-34.7v0.5c0.2,4,1.5,7.2,3.8,9.5c2.3,2.3,5.3,3.5,9.1,3.5
				c3,0,5.5-0.7,7.6-2.1c2-1.4,3.4-3.4,4-6h9.7c-0.8,4.7-3.1,8.5-6.8,11.5c-3.7,3-8.3,4.5-13.8,4.5c-4.8,0-9-1-12.5-2.9
				c-3.6-1.9-6.3-4.7-8.3-8.2c-1.9-3.5-2.9-7.6-2.9-12.3C568.5,606.5,569.4,602.4,571.3,598.8z M603.7,606.1c-0.4-3.4-1.8-6-4-7.9
				c-2.2-1.9-5.1-2.8-8.5-2.8c-3.2,0-5.9,1-8.2,2.9c-2.3,1.9-3.6,4.5-4,7.8H603.7z"/>
		</g>
		<g>
			<path class="st2" d="M735,592.5c3.5,3.4,5.2,8.9,5.2,16.6v25.1h-12.7v-24.4c0-8-3.1-12-9.3-12c-3.3,0-5.8,1.1-7.6,3.3
				c-1.8,2.2-2.7,5.3-2.7,9.3v23.6h-12.7V588h11.1l1.2,5.8c1.6-2,3.6-3.5,5.8-4.6c2.3-1.1,5.1-1.7,8.4-1.7
				C727.1,587.4,731.5,589.1,735,592.5z"/>
			<path class="st2" d="M748,598.6c1.9-3.6,4.7-6.3,8.2-8.3c3.5-1.9,7.6-2.9,12.2-2.9c4.7,0,8.8,0.9,12.4,2.7
				c3.6,1.8,6.4,4.4,8.4,7.7c2,3.3,3,7.2,3.1,11.7c0,1.6-0.1,3.1-0.4,4.3h-33.5v0.4c0.3,3.4,1.4,6,3.2,7.9c1.9,1.9,4.4,2.9,7.6,2.9
				c2.6,0,4.7-0.6,6.4-1.7c1.7-1.1,2.8-2.7,3.4-4.9h12.5c-0.5,3.1-1.6,5.8-3.5,8.3c-1.9,2.5-4.3,4.4-7.4,5.8
				c-3.1,1.4-6.6,2.1-10.5,2.1c-5.2,0-9.6-1-13.3-2.9c-3.7-1.9-6.6-4.7-8.6-8.2c-2-3.6-3-7.7-3-12.4
				C745.1,606.4,746,602.2,748,598.6z M779.5,605.7c-0.4-2.8-1.6-5-3.5-6.5c-1.9-1.5-4.3-2.3-7.1-2.3c-2.8,0-5.1,0.8-7,2.4
				c-1.9,1.6-3,3.7-3.4,6.4H779.5z"/>
			<g>
				<g>
					<path class="st2" d="M657.1,634.7c-18,0-32.7-14.7-32.7-32.7c0-18,14.7-32.7,32.7-32.7s32.7,14.7,32.7,32.7
						C689.7,620.1,675.1,634.7,657.1,634.7z M657.1,583.1c-10.4,0-18.9,8.5-18.9,18.9s8.5,18.9,18.9,18.9S676,612.5,676,602
						S667.5,583.1,657.1,583.1z"/>
				</g>
				<g>
					<path class="st2" d="M613.6,580.3v-13.7c10.4,0,18.9-8.5,18.9-18.9h13.7C646.2,565.7,631.6,580.3,613.6,580.3z"/>
				</g>
			</g>
		</g>
	</g>
</g>
</svg>
