<?xml version="1.0" encoding="utf-8"?>
<!-- Generator: Adobe Illustrator 22.0.0, SVG Export Plug-In . SVG Version: 6.00 Build 0)  -->
<svg version="1.1" id="Layer_1" xmlns="http://www.w3.org/2000/svg" xmlns:xlink="http://www.w3.org/1999/xlink" x="0px" y="0px"
	 viewBox="0 0 1100 124" style="enable-background:new 0 0 1100 124;" xml:space="preserve">
<style type="text/css">
	.st0{fill:#FFFFFF;}
</style>
<g>
	<g>
		<path class="st0" d="M812.6,45.4c3-5.7,7.1-10.2,12.7-13.3c5.5-3.2,11.9-4.8,19.2-4.8c8.6,0,15.8,2.4,21.5,7
			c5.7,4.8,9.1,11,10.5,19h-12.1c-1.2-4.8-3.6-8.6-7.1-11.2c-3.6-2.7-7.8-4-12.9-4c-4.8,0-8.8,1.2-12.4,3.4s-6.3,5.5-8.2,9.6
			c-1.9,4-2.9,8.8-2.9,14.1s1,10.1,2.9,14.1c1.9,4,4.6,7.2,8.1,9.6c3.6,2.3,7.6,3.4,12.4,3.4c5.9,0,10.9-1.7,15-4.9
			c4-3.3,6.2-7.8,6.4-13.7v-1.8h-20.7V61.9h32.4v40.9h-9.3l-1.3-10.7c-2.1,3.1-5.2,5.8-9.1,8c-3.9,2.3-8.7,3.3-14,3.3
			c-6.9,0-13.1-1.5-18.4-4.8c-5.3-3.2-9.5-7.6-12.5-13.4c-3-5.8-4.5-12.4-4.5-19.8C808.2,57.7,809.6,51.1,812.6,45.4z"/>
		<path class="st0" d="M919.4,48v10.8h-5.1c-4.8,0-8.2,1.5-10.3,4.6c-2.1,3.1-3.2,7-3.2,11.8v27.4h-11.5V48h10.2l1.3,8.2
			c1.5-2.6,3.6-4.5,6.1-6.1c2.5-1.4,5.8-2.1,10-2.1L919.4,48L919.4,48z"/>
		<path class="st0" d="M935,99.9c-4.3-2.3-7.5-5.6-9.9-9.9c-2.3-4.3-3.4-9.1-3.4-14.7c0-5.5,1.2-10.3,3.4-14.6
			c2.3-4.3,5.6-7.5,9.9-9.9c4.3-2.4,9.1-3.6,14.6-3.6s10.3,1.2,14.6,3.6c4.3,2.4,7.5,5.6,9.9,9.9c2.3,4.3,3.4,9.1,3.4,14.6
			c0,5.6-1.2,10.5-3.4,14.7c-2.3,4.3-5.6,7.5-9.9,9.9c-4.3,2.3-9.1,3.4-14.6,3.4C944.1,103.4,939.3,102.2,935,99.9z M961.2,88.4
			c3-3.3,4.4-7.7,4.4-13.1s-1.4-9.7-4.4-13.1c-3-3.3-6.9-5.1-11.6-5.1c-4.9,0-8.7,1.7-11.6,5.1c-3,3.3-4.4,7.7-4.4,13.1
			s1.4,9.7,4.4,13.1c3,3.3,6.8,5.1,11.6,5.1C954.3,93.5,958.3,91.8,961.2,88.4z"/>
		<path class="st0" d="M1034.1,48v54.6H1024l-1.3-6.9c-4.2,5.1-9.7,7.6-16.9,7.6c-6.4,0-11.6-2-15.6-5.9c-4-4-5.9-10.3-5.9-19.2
			V48.1h11.5v29c0,5.3,1.1,9.4,3.2,12.1s5.3,4.2,9.5,4.2c4.4,0,7.8-1.7,10.3-4.9c2.5-3.2,3.7-7.7,3.7-13.3V48.1h11.5V48z"/>
		<path class="st0" d="M1087.5,50.7c3.9,2.3,7,5.5,9.1,9.7c2.3,4.3,3.3,9.1,3.3,14.9c0,5.6-1.1,10.5-3.3,14.7
			c-2.3,4.3-5.2,7.5-9.1,9.9c-3.9,2.3-8.3,3.4-13.3,3.4c-4,0-7.6-0.7-10.6-2.3c-3-1.5-5.3-3.6-7.1-6.1v29H1045V48h10l1.4,8.1
			c4.4-5.8,10.3-8.8,17.8-8.8C1079.1,47.4,1083.6,48.5,1087.5,50.7z M1083.8,88.5c3-3.4,4.4-7.8,4.4-13.2c0-5.5-1.4-9.7-4.4-13.2
			c-3-3.3-6.8-5-11.6-5c-4.8,0-8.7,1.7-11.5,5c-3,3.3-4.4,7.6-4.4,12.9c0,5.5,1.4,10,4.4,13.3c3,3.4,6.8,5.1,11.5,5.1
			C1077,93.6,1080.9,92,1083.8,88.5z"/>
	</g>
	<g>
		<g>
			<path class="st0" d="M4.3,45.4c3-5.7,7.1-10.2,12.6-13.3c5.5-3.2,11.8-4.8,19-4.8c5.6,0,10.7,1.1,15.2,3.2
				c4.5,2.1,8.2,5.2,11,9.1c2.9,3.9,4.6,8.6,5.5,13.7H55.4c-1.2-4.8-3.6-8.6-7-11.2c-3.4-2.7-7.8-4-12.9-4c-4.6,0-8.7,1.2-12.1,3.4
				c-3.4,2.3-6.2,5.5-8,9.6c-1.9,4-2.7,8.8-2.7,14.1c0,5.2,1,10,2.7,14.1c1.9,4.2,4.5,7.4,8,9.6c3.4,2.3,7.6,3.4,12.1,3.4
				c5.1,0,9.4-1.3,12.8-4c3.4-2.7,5.8-6.4,7-11.2h12.4c-0.8,5.2-2.6,9.9-5.3,13.8c-2.9,3.9-6.4,6.9-10.9,9
				c-4.5,2.1-9.6,3.2-15.3,3.2c-7.2,0-13.7-1.5-19-4.8C11.6,95.4,7.4,91,4.4,85.3C1.4,79.6,0,72.9,0,65.2
				C-0.1,57.7,1.3,51.1,4.3,45.4z"/>
			<path class="st0" d="M86.6,99.9c-4.3-2.3-7.5-5.6-9.9-9.9c-2.3-4.3-3.4-9.1-3.4-14.7c0-5.5,1.2-10.3,3.4-14.6
				c2.3-4.3,5.6-7.5,9.9-9.9c4.3-2.4,9.1-3.6,14.6-3.6s10.3,1.2,14.6,3.6c4.3,2.4,7.5,5.6,9.9,9.9c2.3,4.3,3.4,9.1,3.4,14.6
				c0,5.6-1.2,10.5-3.4,14.7c-2.3,4.3-5.6,7.5-9.9,9.9c-4.3,2.3-9.1,3.4-14.6,3.4C95.8,103.4,90.9,102.2,86.6,99.9z M112.9,88.4
				c3-3.3,4.4-7.7,4.4-13.1s-1.4-9.7-4.4-13.1c-3-3.3-6.9-5.1-11.6-5.1c-4.9,0-8.7,1.7-11.6,5.1c-3,3.3-4.4,7.7-4.4,13.1
				s1.4,9.7,4.4,13.1c3,3.3,6.8,5.1,11.6,5.1C106.1,93.5,109.9,91.8,112.9,88.4z"/>
			<path class="st0" d="M214.4,53.2c3.8,3.9,5.7,10.1,5.7,18.7v30.9h-11.5V72c0-4.8-1-8.4-2.9-10.9c-1.9-2.5-4.8-3.7-8.6-3.7
				c-4,0-7.1,1.4-9.5,4.3c-2.3,2.9-3.4,6.7-3.4,11.6v29.6h-11.6V72.1c0-4.9-1-8.4-3-10.9c-1.9-2.5-4.9-3.7-8.6-3.7
				c-3.9,0-7,1.4-9.4,4.4c-2.3,3-3.4,6.9-3.4,11.8v29.2h-11.5V48.2h10l1.3,7.1c3.9-5.1,9.3-7.7,16-7.8c3.8,0,7.2,0.8,10.1,2.5
				c3,1.7,5.1,4.2,6.8,7.5c1.9-3.1,4.4-5.6,7.6-7.4c3.1-1.8,6.9-2.6,11.3-2.6C205.8,47.4,210.8,49.3,214.4,53.2z"/>
			<path class="st0" d="M272.7,50.7c3.9,2.3,7,5.5,9.1,9.7c2.3,4.3,3.3,9.1,3.3,14.9c0,5.6-1.1,10.5-3.3,14.7
				c-2.3,4.3-5.2,7.5-9.1,9.9c-3.9,2.3-8.3,3.4-13.3,3.4c-4,0-7.6-0.7-10.6-2.3c-3-1.5-5.3-3.6-7.1-6.1v29h-11.5V48h10l1.4,8.1
				c4.4-5.8,10.3-8.8,17.8-8.8C264.3,47.4,268.7,48.5,272.7,50.7z M269,88.5c3-3.4,4.4-7.8,4.4-13.2c0-5.5-1.4-9.7-4.4-13.2
				c-3-3.3-6.8-5-11.6-5c-4.8,0-8.7,1.7-11.5,5c-3,3.3-4.4,7.6-4.4,12.9c0,5.5,1.4,10,4.4,13.3c3,3.4,6.8,5.1,11.5,5.1
				C262.2,93.6,266,92,269,88.5z"/>
			<path class="st0" d="M293.9,27.9h11.5v74.7h-11.5V27.9z"/>
			<path class="st0" d="M327.1,28.2c1.3,1.3,2,3,2,5s-0.7,3.7-2,5c-1.3,1.3-3,2-5,2c-2,0-3.7-0.7-5-2c-1.3-1.3-2-3-2-5s0.7-3.7,2-5
				c1.3-1.3,3-2,5-2C324,26.1,325.6,26.8,327.1,28.2z M316.3,48h11.5v54.6h-11.5V48z"/>
			<path class="st0" d="M390.9,92.7v10h-6.1c-3.6,0-6.2-0.7-7.7-2.3c-1.5-1.5-2.4-3.7-2.4-6.5c-4.2,6.3-10.1,9.4-18.1,9.4
				c-6.2,0-11-1.4-14.7-4.3c-3.7-2.9-5.6-6.8-5.6-11.8c0-5.6,2-10,5.9-12.9c4-3,9.7-4.5,17.5-4.5h13.8v-3.3c0-3.1-1.1-5.5-3.2-7.2
				c-2.1-1.8-5.1-2.6-8.9-2.6c-3.3,0-6.1,0.7-8.3,2.1c-2.1,1.4-3.4,3.4-3.9,5.8h-11.3c0.6-5.5,3-9.7,7.2-12.7
				c4.3-3,9.9-4.5,16.8-4.5c7.4,0,12.9,1.7,17,5.1c4,3.4,5.9,8.3,5.9,14.7v21.6c0,2.6,1.2,3.8,3.7,3.8h2.4V92.7z M373.6,78.3h-14.3
				c-3.6,0-6.3,0.7-8.2,2.1s-2.9,3.4-2.9,6.2c0,2.4,1,4.3,2.7,5.7c1.8,1.4,4.3,2.1,7.4,2.1c4.8,0,8.4-1.3,11.2-3.8
				c2.6-2.6,4-5.9,4.2-10.2v-2.1H373.6z"/>
			<path class="st0" d="M441.4,53.3c4,4,6.2,10.3,6.2,19.2v30.1h-11.6V73.2c0-5.2-1.1-9.1-3.3-11.9c-2.3-2.7-5.5-4-9.7-4
				c-4.5,0-8.1,1.5-10.7,4.8s-3.9,7.5-3.9,13.1v27.6h-11.5V48h10l1.3,7.1c4.2-5.2,10-7.8,17.5-7.8C432,47.4,437.2,49.4,441.4,53.3z"
				/>
			<path class="st0" d="M498.5,97.9c-4.4,3.6-10.1,5.3-17,5.3c-5.5,0-10.2-1.2-14.3-3.4c-4.2-2.3-7.4-5.6-9.5-9.9
				c-2.1-4.3-3.3-9.1-3.3-14.7c0-5.6,1.2-10.5,3.4-14.6c2.3-4.2,5.5-7.5,9.6-9.7c4.2-2.3,9-3.4,14.5-3.4c6.9,0,12.5,1.8,16.8,5.3
				c4.4,3.6,7,8.4,8.1,14.7h-11.9c-0.8-3.1-2.4-5.6-4.8-7.5c-2.4-1.9-5.2-2.7-8.7-2.7c-4.6,0-8.3,1.7-11.2,5
				c-2.9,3.3-4.3,7.7-4.3,13.1c0,5.5,1.4,9.9,4.3,13.2c2.9,3.3,6.5,5.1,11.2,5.1c3.6,0,6.5-1,8.9-2.9c2.4-1.9,3.9-4.4,4.6-7.6h11.8
				C505.6,89.3,502.9,94.3,498.5,97.9z"/>
			<path class="st0" d="M515.8,60.7c2.3-4.3,5.3-7.5,9.4-9.9c4-2.3,8.7-3.4,13.8-3.4c5.2,0,9.9,1.1,13.9,3.2c4,2.1,7.2,5.1,9.5,9
				c2.3,3.9,3.6,8.6,3.6,13.8c0,1.4-0.1,2.9-0.4,4.4h-41.2v0.6c0.2,4.8,1.8,8.6,4.5,11.3s6.3,4.2,10.8,4.2c3.6,0,6.5-0.8,9-2.5
				c2.4-1.7,4-4,4.8-7.1H565c-1,5.6-3.7,10.1-8.1,13.7c-4.4,3.6-9.9,5.3-16.4,5.3c-5.7,0-10.7-1.2-14.9-3.4
				c-4.3-2.3-7.5-5.6-9.9-9.7c-2.3-4.2-3.4-9-3.4-14.6C512.5,69.9,513.6,64.9,515.8,60.7z M554.3,69.4c-0.5-4-2.1-7.1-4.8-9.4
				c-2.6-2.3-6.1-3.3-10.1-3.3c-3.8,0-7,1.2-9.7,3.4c-2.7,2.3-4.3,5.3-4.8,9.3H554.3z"/>
		</g>
		<g>
			<path class="st0" d="M710.3,53.1c4.2,4,6.2,10.6,6.2,19.7v29.8h-15.1v-29c0-9.5-3.7-14.3-11-14.3c-3.9,0-6.9,1.3-9,3.9
				s-3.2,6.3-3.2,11v28H663V47.8h13.2l1.4,6.9c1.9-2.4,4.3-4.2,6.9-5.5c2.7-1.3,6.1-2,10-2C700.9,47.2,706.2,49.2,710.3,53.1z"/>
			<path class="st0" d="M725.8,60.5c2.3-4.3,5.6-7.5,9.7-9.9c4.2-2.3,9-3.4,14.5-3.4c5.6,0,10.5,1.1,14.7,3.2
				c4.3,2.1,7.6,5.2,10,9.1c2.4,3.9,3.6,8.6,3.7,13.9c0,1.9-0.1,3.7-0.5,5.1h-39.8V79c0.4,4,1.7,7.1,3.8,9.4c2.3,2.3,5.2,3.4,9,3.4
				c3.1,0,5.6-0.7,7.6-2c2-1.3,3.3-3.2,4-5.8h14.9c-0.6,3.7-1.9,6.9-4.2,9.9s-5.1,5.2-8.8,6.9c-3.7,1.7-7.8,2.5-12.5,2.5
				c-6.2,0-11.4-1.2-15.8-3.4c-4.4-2.3-7.8-5.6-10.2-9.7c-2.4-4.3-3.6-9.1-3.6-14.7C722.3,69.6,723.4,64.7,725.8,60.5z M763.2,68.8
				c-0.5-3.3-1.9-5.9-4.2-7.7s-5.1-2.7-8.4-2.7s-6.1,1-8.3,2.9c-2.3,1.9-3.6,4.4-4,7.6L763.2,68.8L763.2,68.8z"/>
			<g>
				<g>
					<path class="st0" d="M617.8,103.4c-21.4,0-38.8-17.5-38.8-38.8s17.5-38.8,38.8-38.8s38.8,17.5,38.8,38.8
						C656.5,85.9,639.2,103.4,617.8,103.4z M617.8,42.1c-12.4,0-22.5,10.1-22.5,22.5S605.4,87,617.8,87c12.4,0,22.5-10.1,22.5-22.5
						S630.1,42.1,617.8,42.1z"/>
				</g>
				<g>
					<path class="st0" d="M566.1,38.7V22.5c12.4,0,22.5-10.1,22.5-22.5h16.3C604.8,21.4,587.5,38.7,566.1,38.7z"/>
				</g>
			</g>
		</g>
	</g>
</g>
</svg>
