<?xml version="1.0" encoding="utf-8"?>
<!-- Generator: Adobe Illustrator 22.0.0, SVG Export Plug-In . SVG Version: 6.00 Build 0)  -->
<svg version="1.1" id="Layer_1" xmlns="http://www.w3.org/2000/svg" xmlns:xlink="http://www.w3.org/1999/xlink" x="0px" y="0px"
	 viewBox="0 0 1200 1200" style="enable-background:new 0 0 1200 1200;" xml:space="preserve">
<style type="text/css">
	.st0{opacity:0;}
	.st1{fill:#101010;}
</style>
<g class="st0">
	<rect width="1200" height="1200"/>
</g>
<g>
	<g>
		<path class="st1" d="M642.3,942.9c-141.9,0-257.4-115.5-257.4-257.4c0-141.9,115.5-257.4,257.4-257.4s257.4,115.5,257.4,257.4
			C899.8,827.4,784.3,942.9,642.3,942.9z M642.3,536.2c-82.3,0-149.2,66.9-149.2,149.2S560,834.6,642.3,834.6
			s149.2-66.9,149.2-149.2S724.6,536.2,642.3,536.2z"/>
	</g>
	<g>
		<path class="st1" d="M299.8,514.3V406.2c82.2,0,149-66.9,149-149h108.1C556.9,398.9,441.5,514.3,299.8,514.3z"/>
	</g>
</g>
</svg>
