<?xml version="1.0" encoding="utf-8"?>
<!-- Generator: Adobe Illustrator 22.0.0, SVG Export Plug-In . SVG Version: 6.00 Build 0)  -->
<svg version="1.1" id="Layer_1" xmlns="http://www.w3.org/2000/svg" xmlns:xlink="http://www.w3.org/1999/xlink" x="0px" y="0px"
	 viewBox="0 0 1100 278.4" style="enable-background:new 0 0 1100 278.4;" xml:space="preserve">
<style type="text/css">
	.st0{opacity:0;fill:#FFFFFF;}
</style>
<rect class="st0" width="1100" height="278.4"/>
<g>
	<g>
		<path d="M771.1,125.2c2.5-4.8,6-8.6,10.7-11.2c4.6-2.7,10-4,16.2-4c7.2,0,13.3,2,18.1,5.9c4.8,4,7.7,9.3,8.8,16h-10.2
			c-1-4-3-7.2-6-9.4c-3-2.3-6.6-3.4-10.9-3.4c-4,0-7.4,1-10.4,2.9s-5.3,4.6-6.9,8.1c-1.6,3.4-2.4,7.4-2.4,11.9s0.8,8.5,2.4,11.9
			c1.6,3.4,3.9,6.1,6.8,8.1c3,1.9,6.4,2.9,10.4,2.9c5,0,9.2-1.4,12.6-4.1c3.4-2.8,5.2-6.6,5.4-11.5v-1.5h-17.4v-8.7h27.3v34.4h-7.8
			l-1.1-9c-1.8,2.6-4.4,4.9-7.7,6.7c-3.3,1.9-7.3,2.8-11.8,2.8c-5.8,0-11-1.3-15.5-4s-8-6.4-10.5-11.3c-2.5-4.9-3.8-10.4-3.8-16.7
			C767.4,135.6,768.6,130,771.1,125.2z"/>
		<path d="M861,127.4v9.1h-4.3c-4,0-6.9,1.3-8.7,3.9c-1.8,2.6-2.7,5.9-2.7,9.9v23.1h-9.7v-46h8.6l1.1,6.9c1.3-2.2,3-3.8,5.1-5.1
			c2.1-1.2,4.9-1.8,8.4-1.8L861,127.4L861,127.4z"/>
		<path d="M874.1,171.1c-3.6-1.9-6.3-4.7-8.3-8.3c-1.9-3.6-2.9-7.7-2.9-12.4c0-4.6,1-8.7,2.9-12.3s4.7-6.3,8.3-8.3s7.7-3,12.3-3
			s8.7,1,12.3,3s6.3,4.7,8.3,8.3c1.9,3.6,2.9,7.7,2.9,12.3c0,4.7-1,8.8-2.9,12.4c-1.9,3.6-4.7,6.3-8.3,8.3
			c-3.6,1.9-7.7,2.9-12.3,2.9C881.8,174,877.7,173,874.1,171.1z M896.2,161.4c2.5-2.8,3.7-6.5,3.7-11s-1.2-8.2-3.7-11
			s-5.8-4.3-9.8-4.3c-4.1,0-7.3,1.4-9.8,4.3c-2.5,2.8-3.7,6.5-3.7,11s1.2,8.2,3.7,11s5.7,4.3,9.8,4.3
			C890.4,165.7,893.7,164.3,896.2,161.4z"/>
		<path d="M957.5,127.4v46H949l-1.1-5.8c-3.5,4.3-8.2,6.4-14.2,6.4c-5.4,0-9.8-1.7-13.1-5c-3.4-3.4-5-8.7-5-16.2v-25.3h9.7v24.4
			c0,4.5,0.9,7.9,2.7,10.2s4.5,3.5,8,3.5c3.7,0,6.6-1.4,8.7-4.1c2.1-2.7,3.1-6.5,3.1-11.2v-22.8h9.7V127.4z"/>
		<path d="M1002.5,129.7c3.3,1.9,5.9,4.6,7.7,8.2c1.9,3.6,2.8,7.7,2.8,12.5c0,4.7-0.9,8.8-2.8,12.4c-1.9,3.6-4.4,6.3-7.7,8.3
			c-3.3,1.9-7,2.9-11.2,2.9c-3.4,0-6.4-0.6-8.9-1.9c-2.5-1.3-4.5-3-6-5.1v24.4h-9.7v-64h8.4l1.2,6.8c3.7-4.9,8.7-7.4,15-7.4
			C995.4,126.9,999.2,127.8,1002.5,129.7z M999.4,161.5c2.5-2.9,3.7-6.6,3.7-11.1c0-4.6-1.2-8.2-3.7-11.1c-2.5-2.8-5.7-4.2-9.8-4.2
			c-4,0-7.3,1.4-9.7,4.2c-2.5,2.8-3.7,6.4-3.7,10.9c0,4.6,1.2,8.4,3.7,11.2c2.5,2.9,5.7,4.3,9.7,4.3
			C993.6,165.8,996.9,164.4,999.4,161.5z"/>
	</g>
	<g>
		<g>
			<path d="M90.7,125.2c2.5-4.8,6-8.6,10.6-11.2c4.6-2.7,9.9-4,16-4c4.7,0,9,0.9,12.8,2.7c3.8,1.8,6.9,4.4,9.3,7.7
				c2.4,3.3,3.9,7.2,4.6,11.5h-10.3c-1-4-3-7.2-5.9-9.4c-2.9-2.3-6.6-3.4-10.9-3.4c-3.9,0-7.3,1-10.2,2.9c-2.9,1.9-5.2,4.6-6.7,8.1
				c-1.6,3.4-2.3,7.4-2.3,11.9c0,4.4,0.8,8.4,2.3,11.9c1.6,3.5,3.8,6.2,6.7,8.1c2.9,1.9,6.4,2.9,10.2,2.9c4.3,0,7.9-1.1,10.8-3.4
				c2.9-2.3,4.9-5.4,5.9-9.4H144c-0.7,4.4-2.2,8.3-4.5,11.6c-2.4,3.3-5.4,5.8-9.2,7.6s-8.1,2.7-12.9,2.7c-6.1,0-11.5-1.3-16-4
				s-8.1-6.4-10.6-11.2s-3.7-10.4-3.7-16.9C87,135.6,88.2,130,90.7,125.2z"/>
			<path d="M160,171.1c-3.6-1.9-6.3-4.7-8.3-8.3c-1.9-3.6-2.9-7.7-2.9-12.4c0-4.6,1-8.7,2.9-12.3s4.7-6.3,8.3-8.3s7.7-3,12.3-3
				s8.7,1,12.3,3s6.3,4.7,8.3,8.3c1.9,3.6,2.9,7.7,2.9,12.3c0,4.7-1,8.8-2.9,12.4c-1.9,3.6-4.7,6.3-8.3,8.3
				c-3.6,1.9-7.7,2.9-12.3,2.9C167.7,174,163.6,173,160,171.1z M182.1,161.4c2.5-2.8,3.7-6.5,3.7-11s-1.2-8.2-3.7-11
				s-5.8-4.3-9.8-4.3c-4.1,0-7.3,1.4-9.8,4.3c-2.5,2.8-3.7,6.5-3.7,11s1.2,8.2,3.7,11s5.7,4.3,9.8,4.3
				C176.4,165.7,179.6,164.3,182.1,161.4z"/>
			<path d="M267.6,131.8c3.2,3.3,4.8,8.5,4.8,15.7v26h-9.7v-25.9c0-4-0.8-7.1-2.4-9.2c-1.6-2.1-4-3.1-7.2-3.1c-3.4,0-6,1.2-8,3.6
				c-1.9,2.4-2.9,5.6-2.9,9.8v24.9h-9.8v-25.9c0-4.1-0.8-7.1-2.5-9.2c-1.6-2.1-4.1-3.1-7.2-3.1c-3.3,0-5.9,1.2-7.9,3.7
				c-1.9,2.5-2.9,5.8-2.9,9.9v24.6h-9.7v-46h8.4l1.1,6c3.3-4.3,7.8-6.5,13.5-6.6c3.2,0,6.1,0.7,8.5,2.1c2.5,1.4,4.3,3.5,5.7,6.3
				c1.6-2.6,3.7-4.7,6.4-6.2c2.6-1.5,5.8-2.2,9.5-2.2C260.3,126.9,264.5,128.5,267.6,131.8z"/>
			<path d="M316.6,129.7c3.3,1.9,5.9,4.6,7.7,8.2c1.9,3.6,2.8,7.7,2.8,12.5c0,4.7-0.9,8.8-2.8,12.4c-1.9,3.6-4.4,6.3-7.7,8.3
				c-3.3,1.9-7,2.9-11.2,2.9c-3.4,0-6.4-0.6-8.9-1.9c-2.5-1.3-4.5-3-6-5.1v24.4h-9.7v-64h8.4l1.2,6.8c3.7-4.9,8.7-7.4,15-7.4
				C309.6,126.9,313.3,127.8,316.6,129.7z M313.5,161.5c2.5-2.9,3.7-6.6,3.7-11.1c0-4.6-1.2-8.2-3.7-11.1c-2.5-2.8-5.7-4.2-9.8-4.2
				c-4,0-7.3,1.4-9.7,4.2c-2.5,2.8-3.7,6.4-3.7,10.9c0,4.6,1.2,8.4,3.7,11.2c2.5,2.9,5.7,4.3,9.7,4.3
				C307.8,165.8,311,164.4,313.5,161.5z"/>
			<path d="M334.5,110.5h9.7v62.9h-9.7V110.5z"/>
			<path d="M362.4,110.7c1.1,1.1,1.7,2.5,1.7,4.2s-0.6,3.1-1.7,4.2c-1.1,1.1-2.5,1.7-4.2,1.7s-3.1-0.6-4.2-1.7
				c-1.1-1.1-1.7-2.5-1.7-4.2s0.6-3.1,1.7-4.2c1.1-1.1,2.5-1.7,4.2-1.7C359.8,109,361.2,109.6,362.4,110.7z M353.3,127.4h9.7v46
				h-9.7V127.4z"/>
			<path d="M416.1,165v8.4H411c-3,0-5.2-0.6-6.5-1.9c-1.3-1.3-2-3.1-2-5.5c-3.5,5.3-8.5,7.9-15.2,7.9c-5.2,0-9.3-1.2-12.4-3.6
				c-3.1-2.4-4.7-5.7-4.7-9.9c0-4.7,1.7-8.4,5-10.9c3.4-2.5,8.2-3.8,14.7-3.8h11.6v-2.8c0-2.6-0.9-4.6-2.7-6.1
				c-1.8-1.5-4.3-2.2-7.5-2.2c-2.8,0-5.1,0.6-7,1.8c-1.8,1.2-2.9,2.9-3.3,4.9h-9.5c0.5-4.6,2.5-8.2,6.1-10.7s8.3-3.8,14.1-3.8
				c6.2,0,10.9,1.4,14.3,4.3c3.4,2.9,5,7,5,12.4v18.2c0,2.2,1,3.2,3.1,3.2L416.1,165L416.1,165z M401.6,152.9h-12
				c-3,0-5.3,0.6-6.9,1.8s-2.4,2.9-2.4,5.2c0,2,0.8,3.6,2.3,4.8s3.6,1.8,6.2,1.8c4,0,7.1-1.1,9.4-3.2c2.2-2.2,3.4-5,3.5-8.6v-1.8
				H401.6z"/>
			<path d="M458.6,131.9c3.4,3.4,5.2,8.7,5.2,16.2v25.3H454v-24.8c0-4.4-0.9-7.7-2.8-10s-4.6-3.4-8.2-3.4c-3.8,0-6.8,1.3-9,4
				s-3.3,6.3-3.3,11v23.2H421v-46h8.4l1.1,6c3.5-4.4,8.4-6.6,14.7-6.6C450.7,126.9,455.1,128.6,458.6,131.9z"/>
			<path d="M506.7,169.4c-3.7,3-8.5,4.5-14.3,4.5c-4.6,0-8.6-1-12-2.9c-3.5-1.9-6.2-4.7-8-8.3s-2.8-7.7-2.8-12.4s1-8.8,2.9-12.3
				s4.6-6.3,8.1-8.2s7.6-2.9,12.2-2.9c5.8,0,10.5,1.5,14.1,4.5c3.7,3,5.9,7.1,6.8,12.4h-10c-0.7-2.6-2-4.7-4-6.3s-4.4-2.3-7.3-2.3
				c-3.9,0-7,1.4-9.4,4.2s-3.6,6.5-3.6,11c0,4.6,1.2,8.3,3.6,11.1s5.5,4.3,9.4,4.3c3,0,5.5-0.8,7.5-2.4c2-1.6,3.3-3.7,3.9-6.4h9.9
				C512.7,162.2,510.4,166.4,506.7,169.4z"/>
			<path d="M521.3,138.1c1.9-3.6,4.5-6.3,7.9-8.3c3.4-1.9,7.3-2.9,11.6-2.9c4.4,0,8.3,0.9,11.7,2.7s6.1,4.3,8,7.6s3,7.2,3,11.6
				c0,1.2-0.1,2.4-0.3,3.7h-34.7v0.5c0.2,4,1.5,7.2,3.8,9.5s5.3,3.5,9.1,3.5c3,0,5.5-0.7,7.6-2.1c2-1.4,3.4-3.4,4-6h9.7
				c-0.8,4.7-3.1,8.5-6.8,11.5s-8.3,4.5-13.8,4.5c-4.8,0-9-1-12.5-2.9c-3.6-1.9-6.3-4.7-8.3-8.2c-1.9-3.5-2.9-7.6-2.9-12.3
				C518.5,145.8,519.4,141.6,521.3,138.1z M553.7,145.4c-0.4-3.4-1.8-6-4-7.9s-5.1-2.8-8.5-2.8c-3.2,0-5.9,1-8.2,2.9s-3.6,4.5-4,7.8
				H553.7z"/>
		</g>
		<g>
			<path d="M685,131.7c3.5,3.4,5.2,8.9,5.2,16.6v25.1h-12.7V149c0-8-3.1-12-9.3-12c-3.3,0-5.8,1.1-7.6,3.3s-2.7,5.3-2.7,9.3v23.6
				h-12.7v-46h11.1l1.2,5.8c1.6-2,3.6-3.5,5.8-4.6c2.3-1.1,5.1-1.7,8.4-1.7C677.1,126.7,681.5,128.4,685,131.7z"/>
			<path d="M698,137.9c1.9-3.6,4.7-6.3,8.2-8.3c3.5-1.9,7.6-2.9,12.2-2.9c4.7,0,8.8,0.9,12.4,2.7c3.6,1.8,6.4,4.4,8.4,7.7
				s3,7.2,3.1,11.7c0,1.6-0.1,3.1-0.4,4.3h-33.5v0.4c0.3,3.4,1.4,6,3.2,7.9c1.9,1.9,4.4,2.9,7.6,2.9c2.6,0,4.7-0.6,6.4-1.7
				c1.7-1.1,2.8-2.7,3.4-4.9h12.5c-0.5,3.1-1.6,5.8-3.5,8.3s-4.3,4.4-7.4,5.8c-3.1,1.4-6.6,2.1-10.5,2.1c-5.2,0-9.6-1-13.3-2.9
				s-6.6-4.7-8.6-8.2c-2-3.6-3-7.7-3-12.4C695.1,145.6,696,141.5,698,137.9z M729.5,144.9c-0.4-2.8-1.6-5-3.5-6.5s-4.3-2.3-7.1-2.3
				s-5.1,0.8-7,2.4c-1.9,1.6-3,3.7-3.4,6.4L729.5,144.9L729.5,144.9z"/>
			<g>
				<g>
					<path d="M607.1,174c-18,0-32.7-14.7-32.7-32.7s14.7-32.7,32.7-32.7s32.7,14.7,32.7,32.7C639.7,159.3,625.1,174,607.1,174z
						 M607.1,122.4c-10.4,0-18.9,8.5-18.9,18.9s8.5,18.9,18.9,18.9s18.9-8.5,18.9-18.9S617.5,122.4,607.1,122.4z"/>
				</g>
				<g>
					<path d="M563.6,119.6v-13.7c10.4,0,18.9-8.5,18.9-18.9h13.7C596.2,105,581.6,119.6,563.6,119.6z"/>
				</g>
			</g>
		</g>
	</g>
</g>
</svg>
