<?xml version="1.0" encoding="utf-8"?>
<!-- Generator: Adobe Illustrator 22.0.0, SVG Export Plug-In . SVG Version: 6.00 Build 0)  -->
<svg version="1.1" id="Layer_1" xmlns="http://www.w3.org/2000/svg" xmlns:xlink="http://www.w3.org/1999/xlink" x="0px" y="0px"
	 viewBox="0 0 1100 1200.4" style="enable-background:new 0 0 1100 1200.4;" xml:space="preserve">
<style type="text/css">
	.st0{fill:#4D4D4D;}
	.st1{fill:none;stroke:#4D4D4D;stroke-width:1.3;stroke-miterlimit:10;}
	.st2{fill:none;stroke:#999999;stroke-width:1.3;stroke-miterlimit:10;}
	.st3{fill:#FFFFFF;}
</style>
<rect x="0" y="0" width="1100" height="1200"/>
<g>
	<g>
		<g>
			<path class="st0" d="M998.7,110.4V1090H101.3V110.4H998.7 M1000,109.1H100v982.1h900V109.1L1000,109.1z"/>
		</g>
		<line class="st1" x1="1000" y1="1009.4" x2="100" y2="1009.4"/>
		<line class="st1" x1="1000" y1="927.6" x2="100" y2="927.6"/>
		<line class="st1" x1="1000" y1="845.7" x2="100" y2="845.7"/>
		<line class="st1" x1="1000" y1="763.9" x2="100" y2="763.9"/>
		<line class="st1" x1="1000" y1="682" x2="100" y2="682"/>
		<line class="st1" x1="1000" y1="600.2" x2="100" y2="600.2"/>
		<line class="st1" x1="1000" y1="518.4" x2="100" y2="518.4"/>
		<line class="st1" x1="1000" y1="436" x2="100" y2="436"/>
		<line class="st1" x1="1000" y1="354.7" x2="100" y2="354.7"/>
		<line class="st1" x1="1000" y1="272.8" x2="100" y2="272.8"/>
		<line class="st1" x1="1000" y1="191" x2="100" y2="191"/>
		<line class="st1" x1="181.5" y1="109.1" x2="181.5" y2="1091.3"/>
		<line class="st1" x1="345.2" y1="109.1" x2="345.2" y2="1091.3"/>
		<line class="st1" x1="427.1" y1="109.1" x2="427.1" y2="1091.3"/>
		<g>
			<line class="st1" x1="263.4" y1="109.1" x2="263.4" y2="1091.3"/>
			<line class="st1" x1="508.9" y1="109.1" x2="508.9" y2="1091.3"/>
		</g>
		<line class="st1" x1="590.8" y1="109.1" x2="590.8" y2="1091.3"/>
		<line class="st1" x1="672.6" y1="109.1" x2="672.6" y2="1091.3"/>
		<line class="st1" x1="754.5" y1="109.1" x2="754.5" y2="1091.3"/>
		<line class="st1" x1="836.3" y1="109.1" x2="836.3" y2="1091.3"/>
		<line class="st1" x1="918.2" y1="109.1" x2="918.2" y2="1091.3"/>
	</g>
	<rect x="263.4" y="272.5" class="st2" width="572.8" height="654.9"/>
	<g>
		<g>
			<path class="st3" d="M590.5,927.6c-135.5,0-245.8-110.3-245.8-245.8C344.7,546.2,455,436,590.5,436s245.8,110.3,245.8,245.8
				C836.3,817.3,726,927.6,590.5,927.6z M590.5,539.3c-78.6,0-142.5,63.9-142.5,142.5s63.9,142.5,142.5,142.5S733,760.3,733,681.8
				S669.1,539.3,590.5,539.3z"/>
		</g>
		<g>
			<path class="st3" d="M263.4,518.4V415.1c78.5,0,142.3-63.8,142.3-142.3h103.2C508.9,408.2,398.8,518.4,263.4,518.4z"/>
		</g>
	</g>
</g>
</svg>
