<?xml version="1.0" encoding="utf-8"?>
<!-- Generator: Adobe Illustrator 22.0.0, SVG Export Plug-In . SVG Version: 6.00 Build 0)  -->
<svg version="1.1" id="Layer_1" xmlns="http://www.w3.org/2000/svg" xmlns:xlink="http://www.w3.org/1999/xlink" x="0px" y="0px"
	 viewBox="0 0 2000 929.5" style="enable-background:new 0 0 2000 929.5;" xml:space="preserve">
<style type="text/css">
	.st0{fill:#CCB193;}
	.st1{fill:#FFFFFF;}
	.st2{fill:#8E8E8E;}
</style>
<g>
	<path class="st0" d="M11.5,49.8C19.1,35,29.9,23.5,44,15.3C58.1,7.1,74.5,3,93.3,3c14.5,0,27.6,2.8,39.3,8.3
		c11.7,5.5,21.2,13.4,28.6,23.6c7.4,10.2,12,22,14.1,35.5h-31.7c-3.1-12.3-9.2-22-18.2-29c-9-7-20.1-10.5-33.4-10.5
		c-12,0-22.5,3-31.5,9c-9,6-15.9,14.3-20.7,24.8c-4.8,10.6-7.2,22.8-7.2,36.6c0,13.6,2.4,25.8,7.2,36.4c4.8,10.7,11.7,19,20.7,25
		c9,6,19.5,9,31.5,9c13.2,0,24.3-3.5,33.3-10.5c8.9-7,14.9-16.7,18.1-29H175c-2,13.6-6.7,25.5-13.9,35.6
		c-7.3,10.1-16.7,17.9-28.3,23.5c-11.6,5.5-24.7,8.3-39.5,8.3c-18.8,0-35.2-4-49.3-12.1c-14.1-8.1-24.9-19.5-32.6-34.4
		C3.8,138.2,0,121,0,101.3C0,81.8,3.8,64.6,11.5,49.8z"/>
	<path class="st0" d="M225.6,190.6c-10.9-6-19.4-14.4-25.4-25.4c-6-10.9-9-23.6-9-37.9c0-14.2,3-26.7,9-37.7
		c6-10.9,14.4-19.5,25.4-25.5c10.9-6.1,23.5-9.1,37.7-9.1c14.2,0,26.7,3,37.7,9.1c10.9,6.1,19.4,14.6,25.4,25.5
		c6,10.9,9,23.5,9,37.7c0,14.4-3,27-9,37.9c-6,10.9-14.4,19.4-25.4,25.4c-10.9,6-23.5,9-37.7,9C249.1,199.5,236.6,196.6,225.6,190.6
		z M293.5,161c7.6-8.7,11.5-20,11.5-33.8s-3.8-25.1-11.5-33.8c-7.6-8.7-17.7-13.1-30.2-13.1c-12.5,0-22.5,4.4-30.1,13.1
		c-7.5,8.7-11.3,20-11.3,33.8s3.8,25.1,11.3,33.8c7.5,8.7,17.6,13.1,30.1,13.1C275.8,174.2,285.9,169.8,293.5,161z"/>
	<path class="st0" d="M557.5,70c9.8,10,14.6,26.1,14.6,48.2v79.8h-29.8v-79.5c0-12.3-2.5-21.7-7.5-28.2c-5-6.4-12.3-9.7-22.1-9.7
		c-10.3,0-18.4,3.6-24.4,10.9c-6,7.3-9,17.2-9,29.9v76.5h-30.1v-79.5c0-12.5-2.5-21.9-7.6-28.3c-5.1-6.3-12.5-9.5-22.2-9.5
		c-10.1,0-18.2,3.8-24.2,11.3c-6,7.5-9,17.7-9,30.4v75.6h-29.8V56.6h25.9l3.3,18.5c10.1-13.2,23.9-20,41.4-20.1
		c9.9,0,18.7,2.1,26.2,6.3c7.5,4.2,13.3,10.7,17.4,19.3c5-8.1,11.5-14.4,19.6-18.9c8.1-4.5,17.8-6.8,29.3-6.8
		C535.2,54.9,547.8,59.9,557.5,70z"/>
	<path class="st0" d="M706.5,63.6c10.1,5.8,18,14.2,23.7,25.1c5.7,10.9,8.6,23.8,8.6,38.5c0,14.4-2.9,27-8.6,37.9
		c-5.7,10.9-13.6,19.4-23.7,25.4c-10.1,6-21.6,9-34.5,9c-10.5,0-19.6-1.9-27.3-5.8c-7.7-3.9-13.9-9.1-18.5-15.7v75.1h-29.8V56.6
		h25.9l3.6,21c11.4-15.1,26.8-22.6,46.1-22.6C684.9,54.9,696.4,57.8,706.5,63.6z M697,161.2c7.6-8.8,11.5-20.1,11.5-33.9
		c0-14-3.8-25.3-11.5-33.9c-7.6-8.6-17.6-13-29.9-13c-12.3,0-22.3,4.3-29.8,12.8c-7.5,8.6-11.3,19.7-11.3,33.5
		c0,14.2,3.8,25.7,11.3,34.5c7.5,8.8,17.5,13.2,29.8,13.2C679.4,174.4,689.4,170,697,161.2z"/>
	<path class="st0" d="M760.1,4.7h29.8v193.2h-29.8V4.7z"/>
	<path class="st0" d="M844.3,5.1c3.5,3.4,5.2,7.7,5.2,12.8c0,5.2-1.8,9.4-5.2,12.8c-3.5,3.4-7.8,5.1-13,5.1c-5.2,0-9.5-1.7-13-5.1
		c-3.5-3.4-5.2-7.7-5.2-12.8c0-5.1,1.7-9.4,5.2-12.8c3.5-3.4,7.8-5.1,13-5.1C836.4,0,840.8,1.7,844.3,5.1z M816.4,56.6h29.8v141.3
		h-29.8V56.6z"/>
	<path class="st0" d="M1007.9,171.9v25.9h-15.7c-9.2,0-15.8-1.9-19.9-5.8c-4-3.9-6.1-9.5-6.1-16.8c-10.7,16.2-26.2,24.3-46.6,24.3
		c-15.8,0-28.5-3.7-38.1-11c-9.6-7.4-14.4-17.5-14.4-30.4c0-14.5,5.1-25.7,15.5-33.5c10.3-7.8,25.3-11.7,45-11.7h35.6v-8.6
		c0-7.9-2.8-14.1-8.3-18.6c-5.5-4.5-13.2-6.8-22.9-6.8c-8.7,0-15.8,1.9-21.4,5.7c-5.6,3.8-9,8.8-10.1,15h-29.3
		c1.5-14.2,7.7-25.2,18.8-33c11-7.8,25.5-11.7,43.3-11.7c18.9,0,33.6,4.4,43.9,13.2c10.3,8.8,15.5,21.5,15.5,38.1V162
		c0,6.6,3.1,9.9,9.4,9.9H1007.9z M963.2,135h-37c-9.2,0-16.3,1.8-21.3,5.4c-5,3.6-7.5,8.9-7.5,15.9c0,6.1,2.3,10.9,7,14.6
		c4.7,3.7,11.1,5.5,19.2,5.5c12.3,0,21.9-3.3,28.8-9.9c6.9-6.6,10.4-15.5,10.6-26.5V135z"/>
	<path class="st0" d="M1137,70.4c10.6,10.3,15.9,26.9,15.9,49.7v77.8h-30.1v-76.2c0-13.4-2.9-23.6-8.6-30.6
		c-5.7-7-14.1-10.5-25.1-10.5c-11.8,0-21,4.1-27.7,12.3c-6.7,8.2-10.1,19.5-10.1,33.8v71.2h-29.8V56.6h25.9l3.3,18.5
		c10.7-13.4,25.8-20.1,45.3-20.1C1112.7,54.9,1126.4,60.1,1137,70.4z"/>
	<path class="st0" d="M1286.1,185.6c-11.4,9.3-26,13.9-43.9,13.9c-14,0-26.3-3-37-9c-10.7-6-18.9-14.5-24.7-25.5
		c-5.8-11-8.7-23.7-8.7-38.1s2.9-27,8.8-37.8c5.9-10.9,14.2-19.3,25-25.3c10.8-6,23.2-9,37.4-9c17.7,0,32.1,4.6,43.3,13.9
		c11.2,9.3,18.2,21.9,21,37.9h-30.6c-2-8.1-6.1-14.5-12.1-19.3c-6.1-4.8-13.5-7.2-22.4-7.2c-12,0-21.6,4.3-28.8,13
		c-7.3,8.7-10.9,19.9-10.9,33.7c0,14,3.6,25.3,10.9,34.1c7.3,8.7,16.9,13.1,28.8,13.1c9.2,0,16.8-2.4,22.9-7.3
		c6.1-4.9,10-11.5,11.9-19.7h30.4C1304.6,163.5,1297.5,176.3,1286.1,185.6z"/>
	<path class="st0" d="M1329.6,89.3c5.8-10.9,13.9-19.4,24.3-25.4c10.4-6,22.3-9,35.7-9c13.6,0,25.6,2.8,36,8.3
		c10.4,5.5,18.6,13.3,24.6,23.5c6,10.1,9.1,22,9.2,35.6c0,3.7-0.3,7.5-0.8,11.3h-106.5v1.7c0.7,12.3,4.6,22.1,11.6,29.3
		c7,7.2,16.3,10.8,27.9,10.8c9.2,0,16.9-2.2,23.2-6.5c6.3-4.3,10.4-10.4,12.4-18.4h29.8c-2.6,14.4-9.5,26.1-20.8,35.3
		c-11.3,9.2-25.4,13.8-42.4,13.8c-14.7,0-27.6-3-38.5-9c-11-6-19.4-14.4-25.4-25.3c-6-10.9-9-23.5-9-37.8
		C1320.9,113,1323.8,100.2,1329.6,89.3z M1429.1,111.8c-1.3-10.3-5.4-18.4-12.3-24.2c-6.9-5.8-15.6-8.7-26.1-8.7
		c-9.8,0-18.2,3-25.3,9c-7.1,6-11.2,13.9-12.3,23.9H1429.1z"/>
	<path class="st0" d="M1652.1,151.8c-7.9,14.9-19,26.6-33.3,35.1c-14.3,8.5-30.5,12.7-48.7,12.7c-18.2,0-34.5-4.2-48.7-12.7
		c-14.3-8.5-25.3-20.1-33.3-35.1c-7.9-14.9-11.9-31.7-11.9-50.5c0-18.8,4-35.6,11.9-50.5c7.9-14.9,19-26.6,33.3-35.1
		c14.3-8.5,30.5-12.7,48.7-12.7c18.2,0,34.5,4.2,48.7,12.7c14.3,8.5,25.3,20.1,33.3,35.1c7.9,14.9,11.9,31.7,11.9,50.5
		C1664,120.1,1660,136.9,1652.1,151.8z M1516.6,137.6c5.1,10.8,12.4,19.1,21.7,25.1c9.3,6,19.9,9,31.9,9c12,0,22.6-3,31.9-9
		c9.3-6,16.5-14.4,21.7-25.1c5.1-10.8,7.7-22.9,7.7-36.3c0-13.4-2.6-25.5-7.7-36.3c-5.2-10.8-12.4-19.1-21.7-25.1
		c-9.3-6-19.9-9-31.9-9c-12,0-22.6,3-31.9,9c-9.3,6-16.5,14.4-21.7,25.1c-5.2,10.8-7.7,22.9-7.7,36.3
		C1508.9,114.7,1511.4,126.8,1516.6,137.6z"/>
	<path class="st0" d="M1801.6,70.4c10.6,10.3,15.9,26.9,15.9,49.7v77.8h-30.1v-76.2c0-13.4-2.9-23.6-8.6-30.6
		c-5.7-7-14.1-10.5-25.1-10.5c-11.8,0-21,4.1-27.7,12.3c-6.7,8.2-10.1,19.5-10.1,33.8v71.2H1686V56.6h25.9l3.3,18.5
		c10.7-13.4,25.8-20.1,45.3-20.1C1777.3,54.9,1791,60.1,1801.6,70.4z"/>
	<path class="st0" d="M1845.2,89.3c5.8-10.9,13.9-19.4,24.3-25.4c10.4-6,22.3-9,35.7-9c13.6,0,25.6,2.8,36,8.3
		c10.4,5.5,18.6,13.3,24.6,23.5c6,10.1,9.1,22,9.2,35.6c0,3.7-0.3,7.5-0.8,11.3h-106.5v1.7c0.7,12.3,4.6,22.1,11.6,29.3
		c7,7.2,16.3,10.8,27.9,10.8c9.2,0,16.9-2.2,23.2-6.5c6.3-4.3,10.4-10.4,12.4-18.4h29.8c-2.6,14.4-9.5,26.1-20.8,35.3
		c-11.3,9.2-25.4,13.8-42.4,13.8c-14.7,0-27.6-3-38.5-9c-11-6-19.4-14.4-25.4-25.3c-6-10.9-9-23.5-9-37.8
		C1836.5,113,1839.4,100.2,1845.2,89.3z M1944.7,111.8c-1.3-10.3-5.4-18.4-12.3-24.2c-6.9-5.8-15.6-8.7-26.1-8.7
		c-9.8,0-18.2,3-25.3,9c-7.1,6-11.2,13.9-12.3,23.9H1944.7z"/>
	<path class="st0" d="M31.5,379.5c0.9,11.4,5.6,20.6,13.9,27.5c8.4,6.9,19.3,10.3,32.7,10.3c11.8,0,21.3-2.5,28.6-7.6
		c7.3-5.1,10.9-12.1,10.9-21.1c0-6.4-2-11.5-5.9-15.3c-4-3.8-9.3-6.7-16.1-8.7c-6.8-2-16.4-4.1-28.7-6.3
		c-12.5-2.2-23.2-5.1-32.2-8.7c-8.9-3.6-16.2-9.1-21.8-16.4c-5.6-7.4-8.4-17-8.4-29c0-11,2.9-20.9,8.7-29.5
		c5.8-8.6,13.9-15.4,24.3-20.1c10.4-4.8,22.3-7.2,35.7-7.2c13.8,0,26.1,2.6,37,7.7c10.9,5.2,19.4,12.2,25.7,21.3
		c6.3,9,9.7,19.3,10.2,30.9h-31.2c-1.1-9.9-5.4-17.9-13-24c-7.5-6.1-17.1-9.1-28.7-9.1c-11.2,0-20.2,2.4-26.9,7.3
		c-6.7,4.9-10.1,11.7-10.1,20.6c0,6.3,2,11.2,5.9,14.9c4,3.7,9.2,6.4,15.9,8.3c6.6,1.8,16.1,3.9,28.4,6.1
		c12.5,2.2,23.3,5.2,32.3,8.8c9,3.7,16.4,9.1,22.1,16.3c5.7,7.2,8.6,16.7,8.6,28.4c0,11.4-3,21.6-9.1,30.6
		c-6.1,9-14.5,16.1-25.4,21.1c-10.9,5.1-23.2,7.6-37,7.6c-15.3,0-28.7-2.8-40.3-8.3c-11.6-5.5-20.7-13.2-27.2-23
		c-6.5-9.8-9.9-21.1-10.1-33.8L31.5,379.5z"/>
	<path class="st0" d="M306.6,416.5v25.9h-15.7c-9.2,0-15.8-1.9-19.9-5.8c-4-3.9-6.1-9.5-6.1-16.8c-10.7,16.2-26.2,24.3-46.6,24.3
		c-15.8,0-28.5-3.7-38.1-11c-9.6-7.4-14.4-17.5-14.4-30.4c0-14.5,5.1-25.7,15.5-33.5c10.3-7.8,25.3-11.7,45-11.7h35.6v-8.6
		c0-7.9-2.8-14.1-8.3-18.6c-5.5-4.5-13.2-6.8-22.9-6.8c-8.7,0-15.8,1.9-21.4,5.7c-5.6,3.8-9,8.8-10.1,15H170
		c1.5-14.2,7.7-25.2,18.8-33c11-7.8,25.5-11.7,43.3-11.7c18.9,0,33.6,4.4,43.9,13.2c10.3,8.8,15.5,21.5,15.5,38.1v55.8
		c0,6.6,3.1,9.9,9.4,9.9H306.6z M261.9,379.5h-37c-9.2,0-16.3,1.8-21.3,5.4c-5,3.6-7.5,8.9-7.5,15.9c0,6.1,2.3,10.9,7,14.6
		c4.7,3.7,11.1,5.5,19.2,5.5c12.3,0,21.9-3.3,28.8-9.9c6.9-6.6,10.4-15.5,10.6-26.5V379.5z"/>
	<path class="st0" d="M435.7,314.9c10.6,10.3,15.9,26.9,15.9,49.7v77.8h-30.1v-76.2c0-13.4-2.9-23.6-8.6-30.6
		c-5.7-7-14.1-10.5-25.1-10.5c-11.8,0-21,4.1-27.7,12.3c-6.7,8.2-10.1,19.5-10.1,33.8v71.2h-29.8V301.1h25.9l3.3,18.5
		c10.7-13.4,25.8-20.1,45.3-20.1C411.4,299.4,425.1,304.6,435.7,314.9z"/>
	<path class="st0" d="M499.5,395.8c0.6,7.4,4,13.4,10.4,18.1c6.3,4.7,14.6,7,24.7,7c9,0,16.3-1.7,21.9-5.1c5.6-3.4,8.4-8,8.4-13.7
		c0-4.8-1.3-8.4-3.9-10.8c-2.6-2.4-6-4.1-10.4-5.1c-4.3-1-11-2.1-20-3.2c-12.3-1.5-22.5-3.4-30.5-5.9c-8-2.5-14.4-6.4-19.3-11.9
		c-4.9-5.4-7.3-12.7-7.3-21.9c0-8.6,2.4-16.3,7.3-23c4.9-6.7,11.6-11.9,20.1-15.6c8.6-3.7,18.3-5.5,29.1-5.5
		c17.8,0,32.3,4,43.5,11.9c11.1,7.9,17.2,19,18.1,33.4h-29c-0.7-6.4-4-11.7-9.7-15.9c-5.7-4.1-12.9-6.2-21.5-6.2
		c-8.7,0-15.6,1.7-21,5c-5.3,3.3-8,7.8-8,13.5c0,4.2,1.3,7.4,4,9.5c2.7,2.1,6,3.6,10.1,4.4c4,0.8,10.6,1.8,19.6,2.9
		c12.1,1.3,22.4,3.3,30.6,5.9c8.3,2.7,14.9,6.9,19.9,12.7c5,5.8,7.5,13.7,7.5,23.6c0,8.8-2.6,16.6-7.7,23.3
		c-5.2,6.7-12.2,11.9-21.3,15.5c-9,3.6-19.1,5.4-30.4,5.4c-19,0-34.3-4.3-46-12.8c-11.7-8.6-17.7-20.4-18.1-35.5H499.5z"/>
</g>
<g>
	<path class="st1" d="M1098.3,245.6c12.7,0,23.9,2.4,33.7,7.3c9.7,4.9,17.3,11.8,22.6,20.7c5.3,8.9,8,19.4,8,31.3
		c0,13.4-3.7,25.1-11.2,34.9c-7.5,9.8-17.4,16.5-29.9,20l43.3,78.9h-27l-40-74.2h-49.4v74.2h-24V245.6H1098.3z M1048.4,342.5h48
		c12.7,0,22.8-3.4,30.4-10.2c7.5-6.8,11.3-15.9,11.3-27.3c0-11.2-3.8-20.2-11.3-27c-7.5-6.8-17.6-10.2-30.1-10.2h-48.3V342.5z"/>
	<path class="st1" d="M1183.2,330.6c5.6-10.9,13.5-19.3,23.6-25.3c10.1-6,21.7-9,34.8-9c12.9,0,24.3,2.7,34.2,8
		c9.9,5.3,17.8,13.1,23.5,23.2c5.7,10.1,8.7,22,9.1,35.6c0,2-0.2,5.2-0.6,9.7h-109.3v1.9c0.4,13.8,4.6,24.8,12.7,33.1
		c8.1,8.3,18.7,12.4,31.7,12.4c10.1,0,18.7-2.5,25.8-7.6c7.1-5.1,11.8-12.1,14.2-21.1h22.9c-2.8,14.4-9.7,26.1-20.7,35.2
		c-11,9.1-24.6,13.7-40.6,13.7c-14,0-26.2-3-36.7-9c-10.5-6-18.6-14.4-24.4-25.4c-5.8-10.9-8.7-23.5-8.7-37.7
		C1174.8,354.1,1177.6,341.5,1183.2,330.6z M1284.9,354.1c-1.1-12-5.6-21.3-13.4-27.9c-7.8-6.6-17.7-9.9-29.7-9.9
		c-10.7,0-20.1,3.5-28.2,10.5c-8.1,7-12.7,16.1-13.8,27.3H1284.9z"/>
	<path class="st1" d="M1465.1,298.1v133.9c0,42.5-23.3,63.8-69.8,63.8c-18.2,0-33.1-4.1-44.6-12.4c-11.5-8.3-18.2-20.1-20-35.3h23.2
		c1.8,8.8,6.5,15.6,14.1,20.4c7.5,4.8,17.2,7.2,29,7.2c30.4,0,45.5-14.8,45.5-44.4v-16.6c-10.1,17.3-26.2,25.9-48.3,25.9
		c-13.1,0-24.7-2.9-34.9-8.6c-10.2-5.7-18.2-14-24-24.8c-5.8-10.9-8.7-23.7-8.7-38.6c0-14.2,2.9-26.7,8.7-37.5
		c5.8-10.9,13.8-19.3,24.2-25.4c10.3-6.1,21.9-9.1,34.8-9.1c11.4,0,21.2,2.3,29.3,6.8c8.1,4.5,14.4,10.9,19,19.2l3-24.3H1465.1z
		 M1420.6,413.8c7.1-4.3,12.6-10.4,16.4-18.2c3.9-7.8,5.8-16.7,5.8-26.6c0-10.1-1.9-19.2-5.8-27.2c-3.9-8-9.3-14.2-16.4-18.6
		c-7.1-4.4-15.1-6.6-24.2-6.6c-14,0-25.3,4.8-33.8,14.5c-8.6,9.7-12.8,22.1-12.8,37.4c0,15.3,4.3,27.7,12.8,37.4
		c8.6,9.7,19.8,14.5,33.8,14.5C1405.4,420.3,1413.5,418.2,1420.6,413.8z"/>
	<path class="st1" d="M1614.4,298.1v140.8h-19.6l-3-18.8c-10.7,13.6-25.7,20.4-45,20.4c-16.7,0-30.2-5.1-40.3-15.5
		c-10.1-10.3-15.2-26.5-15.2-48.6v-78.4h22.6v77c0,14.5,3.2,25.6,9.5,33.3c6.3,7.6,15.4,11.5,27.2,11.5c12.9,0,23-4.6,30.2-13.8
		c7.3-9.2,10.9-21.7,10.9-37.5v-70.4H1614.4z"/>
	<path class="st1" d="M1642.6,245.6h22.6v193.2h-22.6V245.6z"/>
	<path class="st1" d="M1825,418.1v20.7h-12.4c-9,0-15.5-1.8-19.3-5.5c-3.9-3.7-5.9-9.1-6.1-16.3c-10.9,15.6-26.6,23.5-47.2,23.5
		c-15.6,0-28.2-3.7-37.7-11c-9.5-7.4-14.2-17.4-14.2-30.1c0-14.2,4.8-25,14.5-32.6c9.7-7.5,23.7-11.3,42.1-11.3h41.4v-9.7
		c0-9.2-3.1-16.4-9.2-21.5c-6.2-5.1-14.8-7.7-25.8-7.7c-9.8,0-17.8,2.2-24.1,6.5c-6.3,4.3-10.3,10.1-11.7,17.2h-22.6
		c1.7-13.8,7.8-24.6,18.4-32.3c10.6-7.7,24.3-11.6,41.3-11.6c18,0,32,4.4,41.8,13.1c9.8,8.7,14.8,21.3,14.8,37.7v60.7
		c0,6.8,3.1,10.2,9.4,10.2H1825z M1786.1,374.5h-43.6c-21,0-31.5,7.8-31.5,23.5c0,7,2.8,12.6,8.3,16.8c5.5,4.2,13,6.3,22.4,6.3
		c13.8,0,24.7-3.6,32.6-10.9c7.9-7.3,11.9-16.9,11.9-28.8V374.5z"/>
	<path class="st1" d="M1911.1,298.1v22.1h-11.3c-13.4,0-23,4.5-28.8,13.5c-5.8,9-8.7,20.1-8.7,33.4v71.8h-22.6V298.1h19.6l3,21.3
		c4-6.4,9.3-11.6,15.7-15.5c6.4-3.9,15.4-5.8,26.8-5.8H1911.1z"/>
	<path class="st1" d="M1023.3,490.1h41.1l61.8,152.1l60.7-152.1h40.3v193.2h-30.6V541.2l-58,142.1h-26.8l-58-142.1v142.1h-30.6
		V490.1z"/>
	<path class="st1" d="M1260.2,574.7c5.8-10.9,13.9-19.4,24.3-25.4c10.4-6,22.3-9,35.7-9c13.6,0,25.6,2.8,36,8.3
		c10.4,5.5,18.6,13.3,24.6,23.5c6,10.1,9.1,22,9.2,35.6c0,3.7-0.3,7.5-0.8,11.3h-106.5v1.7c0.7,12.3,4.6,22.1,11.6,29.3
		c7,7.2,16.3,10.8,27.9,10.8c9.2,0,16.9-2.2,23.2-6.5c6.3-4.3,10.4-10.4,12.4-18.4h29.8c-2.6,14.4-9.5,26.1-20.8,35.3
		c-11.3,9.2-25.4,13.8-42.4,13.8c-14.7,0-27.6-3-38.5-9c-11-6-19.4-14.4-25.4-25.3c-6-10.9-9-23.5-9-37.8
		C1251.5,598.4,1254.4,585.7,1260.2,574.7z M1359.7,597.2c-1.3-10.3-5.4-18.4-12.3-24.1s-15.6-8.7-26.1-8.7c-9.8,0-18.2,3-25.3,9
		c-7.1,6-11.2,13.9-12.3,23.9H1359.7z"/>
	<path class="st1" d="M1548.5,490.1v193.2h-25.9l-3.6-21.3c-11.2,15.3-26.6,22.9-46.1,22.9c-12.9,0-24.4-2.9-34.5-8.7
		c-10.1-5.8-18-14.2-23.7-25.1c-5.7-10.9-8.6-23.8-8.6-38.5c0-14.4,2.9-27,8.7-37.9c5.8-10.9,13.8-19.4,23.9-25.4
		c10.1-6,21.5-9,34.2-9c10.3,0,19.3,1.9,27,5.7c7.7,3.8,14,9,18.8,15.6v-71.5H1548.5z M1507.6,646.9c7.5-8.6,11.3-19.9,11.3-33.7
		c0-14.2-3.8-25.6-11.3-34.4c-7.5-8.7-17.5-13.1-29.8-13.1c-12.3,0-22.3,4.4-29.8,13.1c-7.5,8.7-11.3,20-11.3,33.8
		c0,14,3.8,25.3,11.3,34.1c7.5,8.7,17.5,13.1,29.8,13.1C1490.1,659.9,1500.1,655.5,1507.6,646.9z"/>
	<path class="st1" d="M1602.8,490.5c3.5,3.4,5.2,7.7,5.2,12.8c0,5.2-1.8,9.4-5.2,12.8c-3.5,3.4-7.8,5.1-13,5.1
		c-5.2,0-9.5-1.7-13-5.1c-3.5-3.4-5.2-7.7-5.2-12.8c0-5.1,1.7-9.4,5.2-12.8c3.5-3.4,7.8-5.1,13-5.1
		C1595,485.4,1599.4,487.1,1602.8,490.5z M1575,542h29.8v141.3H1575V542z"/>
	<path class="st1" d="M1758,542v141.3h-26.2l-3.3-17.9c-10.7,13.1-25.2,19.6-43.6,19.6c-16.6,0-30-5.1-40.3-15.5
		c-10.3-10.3-15.5-26.9-15.5-49.7V542h29.8v74.8c0,13.8,2.8,24.3,8.3,31.5c5.5,7.2,13.7,10.8,24.6,10.8c11.4,0,20.3-4.2,26.8-12.6
		c6.4-8.4,9.7-19.8,9.7-34.4V542H1758z"/>
	<path class="st1" d="M1985.4,555.4c9.8,10,14.6,26.1,14.6,48.2v79.8h-29.8v-79.5c0-12.3-2.5-21.7-7.5-28.2
		c-5-6.4-12.3-9.7-22.1-9.7c-10.3,0-18.4,3.6-24.4,10.9c-6,7.3-9,17.2-9,29.9v76.5h-30.1v-79.5c0-12.5-2.5-21.9-7.6-28.3
		c-5.1-6.3-12.5-9.5-22.2-9.5c-10.1,0-18.2,3.8-24.1,11.3c-6,7.5-9,17.7-9,30.4v75.6h-29.8V542h25.9l3.3,18.5
		c10.1-13.2,23.9-20,41.4-20.1c9.9,0,18.7,2.1,26.2,6.3c7.5,4.2,13.3,10.7,17.4,19.3c5-8.1,11.5-14.4,19.6-18.9
		c8.1-4.5,17.8-6.8,29.3-6.8C1963,540.4,1975.6,545.4,1985.4,555.4z"/>
	<path class="st1" d="M1095.6,734.6c22.4,0,39.8,4.4,52.2,13.2c12.3,8.8,18.5,21.3,18.5,37.5c0,12-3.3,21.6-9.9,29
		c-6.6,7.4-16,12.1-28.2,14.4c14.4,1.8,25.4,6.4,33.3,13.8c7.8,7.4,11.7,17.7,11.7,30.9c0,16.9-6.4,30.2-19.3,39.9
		c-12.9,9.7-31.1,14.5-54.6,14.5h-77V734.6H1095.6z M1063.6,814.1h33.1c8.8,0,15.7-2.1,20.7-6.3c5-4.2,7.5-9.9,7.5-17.1
		c0-7.2-2.5-12.9-7.5-17.1c-5-4.2-11.9-6.3-20.7-6.3h-33.1V814.1z M1063.6,895h35.9c9.9,0,17.6-2.1,23-6.3
		c5.4-4.2,8.1-10.1,8.1-17.7c0-7.9-2.8-14-8.3-18.4c-5.5-4.3-13.2-6.5-22.9-6.5h-35.9V895z"/>
	<path class="st1" d="M1224.6,920.5c-11.3-6-20.1-14.5-26.2-25.5c-6.2-11-9.2-23.7-9.2-38.1c0-14.4,3.1-27,9.2-38.1
		c6.2-11,14.9-19.5,26.2-25.5c11.3-6,24.4-9,39.3-9c14.9,0,28,3,39.3,9c11.3,6,20.1,14.5,26.2,25.5c6.2,11,9.2,23.7,9.2,38.1
		c0,14.5-3.1,27.3-9.2,38.2c-6.2,10.9-14.9,19.4-26.2,25.4c-11.3,6-24.4,9-39.3,9C1249,929.5,1235.9,926.5,1224.6,920.5z
		 M1289.7,886.4c6.3-7.5,9.5-17.4,9.5-29.5c0-12.1-3.2-22-9.5-29.5c-6.3-7.5-15-11.3-25.8-11.3c-10.7,0-19.2,3.8-25.5,11.3
		c-6.3,7.5-9.5,17.4-9.5,29.5c0,12.1,3.2,22,9.5,29.5c6.3,7.5,14.9,11.3,25.5,11.3C1274.8,897.8,1283.4,894,1289.7,886.4z"/>
	<path class="st1" d="M1357.5,734.6h38.9v193.2h-38.9V734.6z"/>
	<path class="st1" d="M1562.6,734.6v193.2h-33.9l-3.9-19.6c-10.9,14.2-25.6,21.3-44.2,21.3c-12.5,0-23.7-3-33.7-9
		c-9.9-6-17.7-14.5-23.3-25.5c-5.6-11-8.4-23.8-8.4-38.4c0-14.4,2.8-27,8.4-38c5.6-10.9,13.4-19.4,23.5-25.4c10-6,21.3-9,33.8-9
		c18.4,0,32.7,6.4,42.8,19.3v-69H1562.6z M1514.8,886.6c6.3-7.5,9.4-17.2,9.4-29.4c0-12.3-3.1-22.3-9.4-29.8
		c-6.3-7.5-14.6-11.3-25.1-11.3c-10.5,0-18.9,3.8-25.3,11.3c-6.3,7.5-9.5,17.4-9.5,29.5c0,12.1,3.2,22,9.5,29.5
		c6.3,7.5,14.8,11.3,25.3,11.3C1500.2,897.8,1508.6,894,1514.8,886.6z"/>
</g>
<g>
	<path class="st2" d="M830,415.2l30.5-39.5h8.7V415h9.8v6.7h-9.8v14.9h-7.3v-14.9H830V415.2z M837.8,415h24.1v-31.1L837.8,415z"/>
	<path class="st2" d="M884.3,404.7c0-5.7,1-10.8,2.9-15.3c1.9-4.5,4.7-8,8.2-10.5c3.5-2.5,7.5-3.8,12.1-3.8c4.5,0,8.5,1.3,12,3.8
		c3.5,2.5,6.2,6,8.2,10.5c1.9,4.5,2.9,9.6,2.9,15.3v2.8c0,6-1,11.2-2.9,15.7c-1.9,4.5-4.7,7.9-8.1,10.3c-3.5,2.4-7.5,3.6-12,3.6
		c-4.6,0-8.6-1.2-12.1-3.6c-3.5-2.4-6.2-5.8-8.1-10.3c-1.9-4.5-2.9-9.7-2.9-15.7V404.7z M921.1,392.6c-1.3-3.5-3.1-6.1-5.5-8
		c-2.3-1.9-5.1-2.8-8.2-2.8c-3.1,0-5.9,0.9-8.3,2.8c-2.4,1.9-4.2,4.5-5.5,8c-1.3,3.5-2,7.6-2,12.4v2.3c0,4.8,0.7,8.9,2,12.4
		c1.3,3.5,3.1,6.1,5.5,8c2.4,1.9,5.1,2.8,8.3,2.8c3.1,0,5.9-0.9,8.2-2.8c2.3-1.9,4.2-4.5,5.5-8c1.3-3.5,2-7.6,2-12.4V405
		C923.1,400.2,922.4,396.1,921.1,392.6z"/>
	<path class="st2" d="M937.8,404.7c0-5.7,1-10.8,2.9-15.3c1.9-4.5,4.7-8,8.2-10.5c3.5-2.5,7.5-3.8,12.1-3.8c4.5,0,8.5,1.3,12,3.8
		c3.5,2.5,6.2,6,8.2,10.5c1.9,4.5,2.9,9.6,2.9,15.3v2.8c0,6-1,11.2-2.9,15.7c-1.9,4.5-4.7,7.9-8.1,10.3c-3.5,2.4-7.5,3.6-12,3.6
		c-4.6,0-8.6-1.2-12.1-3.6c-3.5-2.4-6.2-5.8-8.1-10.3c-1.9-4.5-2.9-9.7-2.9-15.7V404.7z M974.6,392.6c-1.3-3.5-3.1-6.1-5.5-8
		c-2.3-1.9-5.1-2.8-8.2-2.8c-3.1,0-5.9,0.9-8.3,2.8c-2.4,1.9-4.2,4.5-5.5,8c-1.3,3.5-2,7.6-2,12.4v2.3c0,4.8,0.7,8.9,2,12.4
		c1.3,3.5,3.1,6.1,5.5,8c2.4,1.9,5.1,2.8,8.3,2.8c3.1,0,5.9-0.9,8.2-2.8c2.3-1.9,4.2-4.5,5.5-8c1.3-3.5,2-7.6,2-12.4V405
		C976.6,400.2,976,396.1,974.6,392.6z"/>
</g>
<g>
	<path class="st2" d="M868,643.9c3,1.7,5.4,4.1,7,7.2c1.7,3.1,2.5,6.6,2.5,10.6c0,4.4-1,8.1-2.9,11.2c-1.9,3.1-4.5,5.5-7.7,7.1
		c-3.2,1.6-6.8,2.4-10.7,2.4c-4.4,0-8.2-0.9-11.5-2.6c-3.2-1.7-5.8-4-7.5-7c-1.8-3-2.8-6.2-3-9.8h7.3c0.3,3.7,1.8,6.7,4.5,9.2
		c2.6,2.5,6,3.7,10.2,3.7c2.4,0,4.7-0.5,6.8-1.6c2.1-1.1,3.8-2.7,5.1-4.8c1.3-2.1,1.9-4.7,1.9-7.7c0-4.2-1.2-7.6-3.7-10.2
		c-2.5-2.6-5.8-3.9-10-3.9c-2.7,0-5.4,0.6-8.1,1.7c-2.7,1.2-4.6,3.3-5.7,6.5l-7-0.2l2-34.6h36.2v6.7h-29.5l-1.4,20
		c1.8-2.3,4-4,6.7-5c2.7-1,5.4-1.6,8.2-1.6C861.6,641.3,865,642.1,868,643.9z"/>
	<path class="st2" d="M884.3,650.2c0-5.7,1-10.8,2.9-15.3c1.9-4.5,4.7-8,8.2-10.5c3.5-2.5,7.5-3.8,12.1-3.8c4.5,0,8.5,1.3,12,3.8
		c3.5,2.5,6.2,6,8.2,10.5c1.9,4.5,2.9,9.6,2.9,15.3v2.8c0,6-1,11.2-2.9,15.7c-1.9,4.5-4.7,7.9-8.1,10.3c-3.5,2.4-7.5,3.6-12,3.6
		c-4.6,0-8.6-1.2-12.1-3.6c-3.5-2.4-6.2-5.8-8.1-10.3c-1.9-4.5-2.9-9.7-2.9-15.7V650.2z M921.1,638.1c-1.3-3.5-3.1-6.1-5.5-8
		c-2.3-1.9-5.1-2.8-8.2-2.8c-3.1,0-5.9,0.9-8.3,2.8c-2.4,1.9-4.2,4.5-5.5,8c-1.3,3.5-2,7.6-2,12.4v2.3c0,4.8,0.7,8.9,2,12.4
		c1.3,3.5,3.1,6.1,5.5,8c2.4,1.9,5.1,2.8,8.3,2.8c3.1,0,5.9-0.9,8.2-2.8c2.3-1.9,4.2-4.5,5.5-8c1.3-3.5,2-7.6,2-12.4v-2.3
		C923.1,645.7,922.4,641.6,921.1,638.1z"/>
	<path class="st2" d="M937.8,650.2c0-5.7,1-10.8,2.9-15.3c1.9-4.5,4.7-8,8.2-10.5c3.5-2.5,7.5-3.8,12.1-3.8c4.5,0,8.5,1.3,12,3.8
		c3.5,2.5,6.2,6,8.2,10.5c1.9,4.5,2.9,9.6,2.9,15.3v2.8c0,6-1,11.2-2.9,15.7c-1.9,4.5-4.7,7.9-8.1,10.3c-3.5,2.4-7.5,3.6-12,3.6
		c-4.6,0-8.6-1.2-12.1-3.6c-3.5-2.4-6.2-5.8-8.1-10.3c-1.9-4.5-2.9-9.7-2.9-15.7V650.2z M974.6,638.1c-1.3-3.5-3.1-6.1-5.5-8
		c-2.3-1.9-5.1-2.8-8.2-2.8c-3.1,0-5.9,0.9-8.3,2.8c-2.4,1.9-4.2,4.5-5.5,8c-1.3,3.5-2,7.6-2,12.4v2.3c0,4.8,0.7,8.9,2,12.4
		c1.3,3.5,3.1,6.1,5.5,8c2.4,1.9,5.1,2.8,8.3,2.8c3.1,0,5.9-0.9,8.2-2.8c2.3-1.9,4.2-4.5,5.5-8c1.3-3.5,2-7.6,2-12.4v-2.3
		C976.6,645.7,976,641.6,974.6,638.1z"/>
</g>
<g>
	<path class="st2" d="M836.7,868.1h43v5.1L849.7,929h-7.9l29.8-54.2h-35V868.1z"/>
	<path class="st2" d="M884.3,897.1c0-5.7,1-10.8,2.9-15.3c1.9-4.5,4.7-8,8.2-10.5c3.5-2.5,7.5-3.8,12.1-3.8c4.5,0,8.5,1.3,12,3.8
		c3.5,2.5,6.2,6,8.2,10.5c1.9,4.5,2.9,9.6,2.9,15.3v2.8c0,6-1,11.2-2.9,15.7c-1.9,4.5-4.7,7.9-8.1,10.3c-3.5,2.4-7.5,3.6-12,3.6
		c-4.6,0-8.6-1.2-12.1-3.6c-3.5-2.4-6.2-5.8-8.1-10.3c-1.9-4.5-2.9-9.7-2.9-15.7V897.1z M921.1,885c-1.3-3.5-3.1-6.1-5.5-8
		c-2.3-1.9-5.1-2.8-8.2-2.8c-3.1,0-5.9,0.9-8.3,2.8c-2.4,1.9-4.2,4.5-5.5,8c-1.3,3.5-2,7.6-2,12.4v2.3c0,4.8,0.7,8.9,2,12.4
		c1.3,3.5,3.1,6.1,5.5,8c2.4,1.9,5.1,2.8,8.3,2.8c3.1,0,5.9-0.9,8.2-2.8c2.3-1.9,4.2-4.5,5.5-8c1.3-3.5,2-7.6,2-12.4v-2.3
		C923.1,892.6,922.4,888.5,921.1,885z"/>
	<path class="st2" d="M937.8,897.1c0-5.7,1-10.8,2.9-15.3c1.9-4.5,4.7-8,8.2-10.5c3.5-2.5,7.5-3.8,12.1-3.8c4.5,0,8.5,1.3,12,3.8
		c3.5,2.5,6.2,6,8.2,10.5c1.9,4.5,2.9,9.6,2.9,15.3v2.8c0,6-1,11.2-2.9,15.7c-1.9,4.5-4.7,7.9-8.1,10.3c-3.5,2.4-7.5,3.6-12,3.6
		c-4.6,0-8.6-1.2-12.1-3.6c-3.5-2.4-6.2-5.8-8.1-10.3c-1.9-4.5-2.9-9.7-2.9-15.7V897.1z M974.6,885c-1.3-3.5-3.1-6.1-5.5-8
		c-2.3-1.9-5.1-2.8-8.2-2.8c-3.1,0-5.9,0.9-8.3,2.8c-2.4,1.9-4.2,4.5-5.5,8c-1.3,3.5-2,7.6-2,12.4v2.3c0,4.8,0.7,8.9,2,12.4
		c1.3,3.5,3.1,6.1,5.5,8c2.4,1.9,5.1,2.8,8.3,2.8c3.1,0,5.9-0.9,8.2-2.8c2.3-1.9,4.2-4.5,5.5-8c1.3-3.5,2-7.6,2-12.4v-2.3
		C976.6,892.6,976,888.5,974.6,885z"/>
</g>
</svg>
